<svg xmlns="http://www.w3.org/2000/svg" viewBox="0 0 128 128"><defs><linearGradient id="g" x1="0" y1="0" x2="1" y2="1"><stop offset="0" stop-color="#111827"/><stop offset="1" stop-color="#334155"/></linearGradient></defs><rect width="128" height="128" rx="30" fill="url(#g)"/><path d="M34 31h60a7 7 0 0 1 7 7v52a7 7 0 0 1-7 7H34a7 7 0 0 1-7-7V38a7 7 0 0 1 7-7Z" fill="none" stroke="#fff" stroke-width="7"/><path d="M42 50h44M42 64h44M42 78h27" stroke="#fff" stroke-width="6" stroke-linecap="round"/><path d="M88 76l10 10-18 18-10 2 2-10Z" fill="#fff"/></svg>